<svg width="10279" height="8860" viewBox="0 0 10279 8860" fill="none" xmlns="http://www.w3.org/2000/svg">
<path d="M9927.78 4089.04C9143.81 2455.03 7380.87 982.001 5316.41 982.001C2996.65 982.001 1328.2 2793.1 715.089 4089.04C691.982 4138.13 680 4191.73 680 4246C680 4300.27 691.982 4353.87 715.089 4402.96C1484.99 6034.96 3253.96 7510 5316.41 7510C7638.18 7510 9306.63 5698.9 9919.74 4400.95C9942.64 4352.51 9954.52 4299.59 9954.52 4246C9954.52 4192.41 9942.64 4139.49 9919.74 4091.05L9927.78 4089.04ZM5316.41 6783.55C3647.95 6783.55 2264.94 5682.8 1452.83 4246C2260.92 2813.22 3643.93 1706.44 5316.41 1706.44C6988.89 1706.44 8369.89 2807.18 9182 4243.99C8373.91 5676.77 6990.9 6783.55 5316.41 6783.55ZM5316.41 2432.89C4958.59 2432.89 4608.81 2539.11 4311.29 2738.12C4013.77 2937.12 3781.89 3219.98 3644.96 3550.91C3508.02 3881.85 3472.2 4246 3542 4597.32C3611.81 4948.63 3784.12 5271.34 4037.13 5524.63C4290.15 5777.91 4612.51 5950.4 4963.46 6020.29C5314.4 6090.17 5678.17 6054.3 6008.75 5917.22C6339.33 5780.15 6621.89 5548.01 6820.68 5250.18C7019.47 4952.35 7125.58 4602.19 7125.58 4243.99C7125.58 4006.15 7078.78 3770.64 6987.86 3550.91C6896.95 3331.18 6763.68 3131.53 6595.69 2963.35C6427.69 2795.17 6228.25 2661.77 6008.75 2570.75C5789.25 2479.74 5553.99 2432.89 5316.41 2432.89ZM5316.41 5332.66C5101.24 5332.66 4890.9 5268.76 4712.01 5149.04C4533.13 5029.33 4393.74 4859.18 4311.49 4660.14C4229.24 4461.09 4207.82 4242.09 4249.94 4030.86C4292.07 3819.62 4395.84 3625.64 4548.14 3473.47C4700.43 3321.3 4894.39 3217.77 5105.48 3175.99C5316.57 3134.21 5535.3 3156.06 5733.98 3238.77C5932.66 3321.47 6102.37 3461.33 6221.62 3640.62C6340.88 3819.92 6404.32 4030.6 6403.92 4246C6403.39 4534.39 6288.58 4810.78 6084.69 5014.51C5880.8 5218.24 5604.49 5332.66 5316.41 5332.66Z" fill="#140A82"/>
<line x1="400.484" y1="8296.23" x2="9715.23" y2="400.516" stroke="#140A82" stroke-width="800" stroke-linecap="round"/>
</svg>
